<svg width="270" height="60" viewBox="0 0 270 60" fill="none" xmlns="http://www.w3.org/2000/svg">
<path d="M255.195 16.5372C252.029 16.5372 249.242 17.3165 246.867 18.9072C244.962 20.1679 243.44 21.8492 242.238 23.9499L242.18 17.5306H233.821V59.0645H242.527V35.8372C242.527 33.5865 242.938 31.6012 243.788 29.8605C244.609 28.1199 245.786 26.7719 247.31 25.8112C248.835 24.8512 250.59 24.3699 252.642 24.3699C254.459 24.3699 256.046 24.7612 257.336 25.5412C258.655 26.3219 259.62 27.4592 260.294 28.8999C260.968 30.3705 261.291 32.1152 261.291 34.1259V59.0638H269.997V32.8625C270.055 29.6505 269.411 26.8305 268.209 24.3699C267.046 21.9859 265.247 19.9879 263.02 18.6085C260.792 17.2279 258.185 16.5359 255.194 16.5359L255.195 16.5372Z" fill="black"/>
<path d="M215.207 0.0915527V9.24288H224.003V0.0915527H215.207ZM215.207 17.5302V59.0635H223.914V17.5302H215.207Z" fill="black"/>
<path d="M196.68 0H205.386V59.0646H196.68V0Z" fill="black"/>
<path d="M171.881 7.14258V14.1939C171.881 15.3046 171.618 16.1479 171.089 16.6886C170.562 17.2286 169.741 17.5306 168.627 17.5306H164.435V25.0026H171.733V47.3605C171.733 49.6712 172.2 51.7445 173.109 53.5152C174.018 55.2858 175.338 56.6632 177.038 57.6238C178.739 58.5845 180.766 59.0978 183.082 59.0978H189.616V51.3232H184.69C183.43 51.3232 182.405 50.8739 181.584 49.9732C180.792 49.0732 180.413 47.8732 180.413 46.3725V25.0299H189.853V17.5306H180.413V7.14324L171.881 7.14258Z" fill="black"/>
<path d="M141.74 16.5374C137.694 16.5374 134.088 17.468 130.892 19.3287C127.751 21.1407 125.163 23.8127 123.42 27.044C121.631 30.3453 120.751 34.0967 120.751 38.2687C120.751 42.4707 121.631 46.192 123.42 49.4933C125.124 52.734 127.697 55.4113 130.834 57.2086C134.03 59.0693 137.636 60 141.682 60C145.669 60 149.247 59.0693 152.413 57.2086C155.521 55.392 158.07 52.7186 159.77 49.4933C161.528 46.192 162.406 42.4407 162.406 38.2687C162.406 34.0667 161.528 30.346 159.77 27.044C158.011 23.7427 155.579 21.1893 152.413 19.3287C149.276 17.468 145.727 16.5374 141.74 16.5374ZM141.682 24.55C143.939 24.55 145.963 25.1233 147.752 26.2933C149.511 27.464 150.887 29.0847 151.854 31.126C152.822 33.1967 153.294 35.5647 153.294 38.296C153.323 40.9973 152.851 43.368 151.854 45.4387C150.887 47.51 149.511 49.1306 147.752 50.2713C145.992 51.442 143.942 52.0153 141.656 52.0153C139.339 52.0153 137.287 51.442 135.47 50.2713C133.682 49.1006 132.274 47.48 131.277 45.4387C130.281 43.368 129.78 40.9973 129.78 38.296C129.78 35.5947 130.281 33.1967 131.277 31.126C132.274 29.0547 133.682 27.434 135.47 26.2933C137.258 25.1233 139.337 24.55 141.682 24.55Z" fill="black"/>
<path d="M111.37 2.19141L87.3921 28.3934V2.27808H78.5376V59.0647H87.3921V31.546L111.46 59.0647H122.861L97.2109 29.6834L122.392 2.19141H111.37Z" fill="black"/>
<path d="M55.4958 59.0674H0V2.28076H55.4958L27.1755 30.2527L55.4958 59.0674Z" fill="url(#paint0_radial_58_598)"/>
<defs>
<radialGradient id="paint0_radial_58_598" cx="0" cy="0" r="1" gradientUnits="userSpaceOnUse" gradientTransform="translate(53.6439 4.60543) scale(63.5439 65.057)">
<stop stop-color="#E44857"/>
<stop offset="0.47" stop-color="#C711E1"/>
<stop offset="1" stop-color="#7F52FF"/>
</radialGradient>
</defs>
</svg>
