<svg width="270" height="81" viewBox="0 0 270 81" fill="none" xmlns="http://www.w3.org/2000/svg">
<path d="M83.869 22.3799C83.8637 21.5678 83.854 20.7557 83.8307 19.9414C83.782 18.172 83.6732 16.3859 83.347 14.6352C83.0155 12.8571 82.474 11.204 81.6205 9.58921C80.7812 8.00185 79.6877 6.55176 78.3805 5.29241C77.0732 4.03307 75.568 2.97965 73.9202 2.17116C72.2447 1.35038 70.5287 0.828002 68.6844 0.509374C66.8664 0.193635 65.0124 0.0895908 63.1742 0.0419048C62.3304 0.0209519 61.4867 0.00939542 60.6429 0.00506033C59.6417 2.73397e-06 58.6389 0 57.6377 0H26.2366C25.2346 0 24.2333 -3.17539e-06 23.2321 0.00577694C22.3883 0.00938951 21.5446 0.0216745 20.7008 0.0419048C20.2403 0.0534651 19.7806 0.070089 19.3201 0.0910419C17.9378 0.154623 16.5533 0.272389 15.1906 0.509374C13.8076 0.748526 12.4958 1.10183 11.2201 1.60976C9.07805 2.46233 7.13254 3.71372 5.49454 5.29241C4.18653 6.55176 3.09303 8.00184 2.25453 9.58848C1.40028 11.204 0.859528 12.8571 0.528028 14.6352C0.201777 16.3859 0.0937734 18.172 0.0442733 19.9414C0.0225232 20.7542 0.00977703 21.567 0.00602702 22.3799C-0.000722993 23.3452 2.45825e-05 24.3104 2.45825e-05 25.275V55.5245C2.45825e-05 56.4905 -0.000722993 57.455 0.00602702 58.4203C0.00977703 59.2331 0.0225232 60.0452 0.0442733 60.8574C0.0937734 62.6282 0.201777 64.4143 0.528028 66.1642C0.859528 67.9416 1.40028 69.5969 2.25453 71.2117C3.09303 72.7983 4.18653 74.2484 5.49454 75.507C6.80179 76.7671 8.30705 77.8213 9.9548 78.6298C11.6303 79.4513 13.3463 79.9722 15.1906 80.2908C17.0078 80.6066 18.8633 80.7113 20.7016 80.7583C21.5446 80.7785 22.3883 80.7908 23.2321 80.7944C24.2333 80.8009 25.2346 80.8002 26.2373 80.8002H57.6377C58.6389 80.8002 59.6409 80.8009 60.6429 80.7944C61.4867 80.7908 62.3304 80.7785 63.1734 80.7583C65.0124 80.7106 66.8657 80.6058 68.6844 80.2908C70.5287 79.9722 72.2447 79.4505 73.9202 78.6298C75.568 77.8213 77.0732 76.7671 78.3805 75.507C79.6877 74.2484 80.7812 72.7983 81.6205 71.2117C82.474 69.5969 83.0155 67.9416 83.3462 66.1642C83.6732 64.4143 83.782 62.6282 83.8307 60.8574C83.854 60.0452 83.8637 59.2331 83.8682 58.4203C83.875 57.455 83.8742 56.4905 83.8742 55.5245V25.275C83.8742 24.3104 83.875 23.3452 83.869 22.3799Z" fill="#F05138"/>
<path d="M66.4611 49.8767L66.4551 49.8702C66.5473 49.5653 66.6433 49.2633 66.7243 48.9519C70.2059 35.5905 61.7098 19.7934 47.3323 11.4766C53.6323 19.7046 56.4186 29.6709 53.9436 38.3859C53.7223 39.1633 53.4576 39.9096 53.1636 40.6351C52.8456 40.4335 52.4443 40.2044 51.9058 39.9183C51.9058 39.9183 37.6048 31.4114 22.1037 16.3658C21.6972 15.9706 30.3695 28.3068 40.211 38.3237C35.5745 35.8166 22.652 26.7592 14.471 19.5456C15.476 21.1604 16.6715 22.7153 17.9855 24.2123C24.8172 32.5588 33.7265 42.8568 44.4005 50.7647C36.9013 55.1858 26.3037 55.5297 15.7527 50.7698C13.1435 49.5913 10.6902 48.1694 8.41846 46.5546C12.8855 53.4366 19.7637 59.3742 28.136 62.8408C38.1193 66.9736 48.0478 66.6932 55.4421 62.908L55.4368 62.9167C55.4706 62.8957 55.5133 62.8733 55.5478 62.8524C55.8516 62.6956 56.1531 62.5352 56.4478 62.3661C60.0006 60.5894 67.0184 58.7875 70.7849 65.8472C71.7074 67.5754 73.6671 58.4183 66.4611 49.8767Z" fill="white"/>
<path d="M115.705 52.436C116.361 58.0412 121.911 61.7167 129.618 61.7167C136.941 61.7167 142.221 58.0412 142.221 52.9562C142.221 48.5749 139.022 45.9008 131.661 44.1191L124.531 42.3743C114.279 39.9235 109.654 35.4677 109.654 28.1176C109.654 19.0587 117.864 12.7837 129.541 12.7837C140.871 12.7837 148.926 19.0956 149.196 28.192H141.681C141.102 22.6229 136.401 19.2061 129.348 19.2061C122.372 19.2061 117.516 22.6597 117.516 27.7087C117.516 31.6435 120.523 33.9837 127.923 35.803L133.857 37.2877C145.342 39.9986 150.044 44.3048 150.044 52.0646C150.044 61.9407 141.912 68.1413 128.962 68.1413C116.939 68.1413 108.729 61.9768 108.113 52.436H115.705ZM197.782 67.249H190.228L181.402 37.6223H181.248L172.461 67.249H164.908L153.732 28.4507H161.054L168.838 59.6004H168.993L177.78 28.4507H184.871L193.735 59.6004H193.89L201.675 28.4507H208.92L197.782 67.249ZM213.798 18.0183C213.798 15.6802 215.803 13.7858 218.23 13.7858C220.697 13.7858 222.701 15.6802 222.701 18.0183C222.701 20.3578 220.697 22.2884 218.23 22.2884C215.803 22.2884 213.798 20.3578 213.798 18.0183ZM214.569 28.4507H221.93V67.249H214.569V28.4507ZM270 34.1687V28.4507H262.215V19.1693H254.892V28.4507H240.821V25.0354C240.859 21.5825 242.247 20.1338 245.562 20.1338C246.64 20.1338 247.72 20.2465 248.606 20.3939V14.8248C247.295 14.6391 246.1 14.5286 244.714 14.5286C236.851 14.5286 233.537 17.6852 233.537 24.9241V28.4507H227.911V34.1687H233.537V67.249H240.859V34.1687H254.892V57.0767C254.892 64.5764 257.86 67.4708 265.567 67.4708C267.225 67.4708 269.113 67.3602 269.961 67.1745V61.3836C269.46 61.458 267.995 61.5693 267.186 61.5693C263.756 61.5693 262.215 60.0101 262.215 56.5203V34.1687H270Z" fill="black"/>
</svg>
