<svg width="270" height="80" viewBox="0 0 270 80" fill="none" xmlns="http://www.w3.org/2000/svg">
<path fill-rule="evenodd" clip-rule="evenodd" d="M108.197 62.6151L101.213 45.2133L94.0698 62.6151H86.3894L97.2793 40.1564L87.4791 17.8356H95.2656L101.625 34.7938L108.515 17.8356H115.638L105.572 40.0178L115.798 62.6151H108.197ZM133.098 62.6151V57.7413H132.991C131.096 61.5671 128.411 63.4791 124.939 63.4791C122.263 63.4791 120.155 62.5342 118.613 60.6453C117.072 58.7324 116.301 56.1742 116.301 52.9716C116.301 46.1049 119.269 42.1991 125.205 41.2542L133.151 39.8373C133.151 35.0213 131.432 32.6133 127.995 32.6133C124.717 32.6133 121.705 33.9262 118.959 36.5538V29.5022C119.986 28.696 121.457 27.9698 123.37 27.3244C125.302 26.6791 127.056 26.3564 128.633 26.3564C135.649 26.3564 139.158 30.9653 139.158 40.1831V62.6151H133.098ZM127.277 46.4044C125.453 46.704 124.168 47.2916 123.424 48.1671C122.698 49.0196 122.334 50.3449 122.334 52.1422C122.334 53.6169 122.75 54.8267 123.583 55.7716C124.416 56.6933 125.506 57.1538 126.852 57.1538C128.677 57.1538 130.183 56.336 131.37 54.6996C132.557 53.064 133.151 51.0249 133.151 48.5822V45.4018L127.277 46.4044ZM178.343 62.6151V42.6364C178.343 39.3413 177.944 36.8987 177.147 35.3093C176.366 33.696 174.967 32.8898 172.948 32.8898C171.335 32.8898 169.98 33.8578 168.881 35.7929C167.783 37.7058 167.233 40.0213 167.233 42.7404V62.6151H161.094V41.9458C161.094 35.9084 159.313 32.8898 155.752 32.8898C154.086 32.8898 152.713 33.8 151.633 35.6204C150.57 37.4409 150.038 39.8142 150.038 42.7404V62.6151H143.898V27.2213H150.038V32.6818H150.144C152.111 28.4649 154.981 26.3564 158.755 26.3564C160.562 26.3564 162.157 26.9787 163.539 28.2231C164.939 29.4445 165.922 31.1387 166.489 33.304C168.562 28.6729 171.609 26.3564 175.631 26.3564C181.549 26.3564 184.508 31.1502 184.508 40.736V62.6151H178.343ZM204.918 62.6151V57.7413H204.812C202.916 61.5671 200.232 63.4791 196.759 63.4791C194.084 63.4791 191.975 62.5342 190.434 60.6453C188.892 58.7324 188.122 56.1742 188.122 52.9716C188.122 46.1049 191.089 42.1991 197.025 41.2542L204.972 39.8373C204.972 35.0213 203.253 32.6133 199.816 32.6133C196.538 32.6133 193.526 33.9262 190.779 36.5538V29.5022C191.807 28.696 193.278 27.9698 195.191 27.3244C197.122 26.6791 198.877 26.3564 200.454 26.3564C207.47 26.3564 210.978 30.9653 210.978 40.1831V62.6151H204.918ZM199.098 46.4044C197.273 46.704 195.989 47.2916 195.244 48.1671C194.518 49.0196 194.154 50.3449 194.154 52.1422C194.154 53.6169 194.571 54.8267 195.404 55.7716C196.237 56.6933 197.326 57.1538 198.673 57.1538C200.498 57.1538 202.004 56.336 203.191 54.6996C204.378 53.064 204.972 51.0249 204.972 48.5822V45.4018L199.098 46.4044ZM231.543 34.9982C230.533 34.1911 229.346 33.7884 227.981 33.7884C226.21 33.7884 224.766 34.7796 223.649 36.7609C222.551 38.7422 222.002 41.3235 222.002 44.5031V62.6151H215.862V27.2213H222.002V34.0996H222.108C223.419 29.0987 225.74 26.5991 229.071 26.5991C230.152 26.5991 230.976 26.76 231.543 27.0827L231.543 34.9982ZM237.655 19.3058C236.609 19.3058 235.723 18.8676 234.997 17.992C234.27 17.0933 233.907 15.9991 233.907 14.7084C233.907 13.3724 234.27 12.2542 234.997 11.3555C235.723 10.4569 236.609 10.008 237.655 10.008C238.718 10.008 239.612 10.4684 240.339 11.3902C241.066 12.2889 241.428 13.3956 241.428 14.7084C241.428 15.9991 241.066 17.0933 240.339 17.992C239.612 18.8676 238.718 19.3058 237.655 19.3058ZM234.519 62.6151V27.2213H240.658V62.6151H234.519ZM263.861 62.6151V42.7404C263.861 36.1733 262.044 32.8898 258.413 32.8898C256.587 32.8898 255.055 33.8 253.814 35.6204C252.592 37.4178 251.981 39.7102 251.981 42.4987V62.6151H245.842V27.2213H251.981V32.8898H252.088C254.072 28.5342 257.013 26.3564 260.911 26.3564C266.971 26.3564 270 31.1956 270 40.8738V62.6151H263.861ZM19.9231 0C18.0586 0.00533333 16.2331 1.38311 15.294 3.48622L0.693021 36.5138C-0.231007 38.6222 -0.231007 41.3778 0.693021 43.4862L15.294 76.5138C16.2331 78.6169 18.0586 79.9956 19.9231 80H49.1251C50.9903 79.9947 52.8157 78.6169 53.7541 76.5138L68.3552 43.4862C69.2792 41.3778 69.2792 38.6222 68.3552 36.5138L53.7541 3.48622C52.8157 1.38311 50.9903 0.00444444 49.1251 0H19.9231ZM20.1886 19.3218C20.2283 19.3164 20.2708 19.3164 20.3105 19.3218H25.3475C25.5706 19.3271 25.7869 19.4951 25.8985 19.7476L34.4426 39.5742C34.4858 39.672 34.5131 39.7813 34.5241 39.8933C34.5344 39.7813 34.5624 39.672 34.6049 39.5742L43.1292 19.7476C43.2442 19.4871 43.4707 19.3191 43.7 19.3218H48.737C49.1833 19.3262 49.5173 20.0578 49.3078 20.5724L40.9676 40L49.3078 59.4009C49.5371 59.9182 49.1949 60.6836 48.737 60.6782H43.7C43.4666 60.6764 43.2387 60.496 43.1292 60.2258L34.6049 40.3991C34.5624 40.3013 34.5344 40.192 34.5241 40.08C34.5131 40.192 34.4858 40.3013 34.4426 40.3991L25.8985 60.2258C25.7917 60.488 25.5747 60.6667 25.3475 60.6782H20.3105C19.8533 60.6836 19.511 59.9182 19.7396 59.4009L28.0805 40L19.7396 20.5724C19.5398 20.1031 19.7841 19.4213 20.1886 19.3218Z" fill="#3498DB"/>
</svg>
