<svg width="22" height="14" viewBox="0 0 22 14" fill="none" xmlns="http://www.w3.org/2000/svg">
<path d="M21.2143 6.22233H2.6826L7.62706 1.32784C7.93427 1.02374 7.93427 0.532187 7.62706 0.22808C7.31985 -0.0760267 6.82328 -0.0760267 6.51607 0.22808L0.230409 6.45022C-0.0768029 6.75432 -0.0768029 7.24587 0.230409 7.54998L6.51607 13.7721C6.66928 13.9238 6.87042 14 7.07156 14C7.2727 14 7.47384 13.9238 7.62706 13.7721C7.93427 13.468 7.93427 12.9765 7.62706 12.6724L2.6826 7.77786H21.2143C21.6488 7.77786 22 7.4302 22 7.0001C22 6.56999 21.6488 6.22233 21.2143 6.22233Z" fill="black"/>
</svg>
