<svg width="22" height="14" viewBox="0 0 22 14" fill="none" xmlns="http://www.w3.org/2000/svg">
<path d="M0.785707 6.22233H19.3174L14.3729 1.32784C14.0657 1.02374 14.0657 0.532187 14.3729 0.22808C14.6802 -0.0760267 15.1767 -0.0760267 15.4839 0.22808L21.7696 6.45022C22.0768 6.75432 22.0768 7.24587 21.7696 7.54998L15.4839 13.7721C15.3307 13.9238 15.1296 14 14.9284 14C14.7273 14 14.5262 13.9238 14.3729 13.7721C14.0657 13.468 14.0657 12.9765 14.3729 12.6724L19.3174 7.77786H0.785707C0.351212 7.77786 0 7.4302 0 7.0001C0 6.56999 0.351212 6.22233 0.785707 6.22233Z" fill="black"/>
</svg>
