<svg width="233" height="60" viewBox="0 0 233 60" fill="none" xmlns="http://www.w3.org/2000/svg">
<path d="M3.39798 26.6671H221.398L200.015 5.69075C198.686 4.38744 198.686 2.2808 200.015 0.977486C201.344 -0.325829 203.491 -0.325829 204.82 0.977486L232.004 27.6438C233.332 28.9471 233.332 31.0537 232.004 32.3571L204.82 59.0233C204.157 59.6733 203.287 60 202.417 60C201.548 60 200.678 59.6733 200.015 59.0233C198.686 57.72 198.686 55.6134 200.015 54.3101L221.398 33.3337H3.39798C1.51889 33.3337 1.52588e-05 31.8437 1.52588e-05 30.0004C1.52588e-05 28.1571 1.51889 26.6671 3.39798 26.6671Z" fill="black"/>
</svg>
