<svg width="270" height="272" viewBox="0 0 270 272" fill="none" xmlns="http://www.w3.org/2000/svg">
<path d="M127.225 13.3665C152.12 -11.3656 194.074 -0.156928 203.231 33.6723L203.563 34.9008C207.789 50.5077 219.865 62.6745 235.356 66.9308L236.577 67.2662C270.157 76.4922 281.282 118.758 256.73 143.836L255.839 144.747C244.512 156.317 240.029 173.001 244.036 188.666L244.351 189.899C253.037 223.858 222.208 254.915 188.5 246.164L187.275 245.846C171.724 241.809 155.164 246.326 143.679 257.735L142.775 258.633C117.88 283.366 75.9256 272.157 66.7687 238.327L66.4361 237.099C62.2114 221.493 50.1343 209.325 34.6429 205.068L33.4232 204.734C-0.156901 195.508 -11.2817 153.243 13.2692 128.163L14.1607 127.253C25.4867 115.683 29.9703 98.9997 25.9636 83.3337L25.6481 82.1005C16.963 48.1424 47.7925 17.0852 81.5004 25.8359L82.7246 26.1537C98.2752 30.1906 114.836 25.6744 126.321 14.2647L127.225 13.3665Z" fill="#E5E9F9"/>
</svg>
