<svg width="295" height="295" viewBox="0 0 295 295" fill="none" xmlns="http://www.w3.org/2000/svg">
<path d="M192.543 -0.00193375C202.715 -0.0121498 212.475 4.01892 219.675 11.2045L283.648 75.0499C290.848 82.2355 294.899 91.9869 294.909 102.159L295 192.541C295.01 202.713 290.979 212.473 283.794 219.673L219.948 283.646C212.763 290.846 203.011 294.897 192.839 294.907L102.457 294.998C92.285 295.008 82.5255 290.977 75.3254 283.792L11.3517 219.946C4.15167 212.761 0.101007 203.009 0.0907911 192.837L1.93707e-05 102.455C-0.0101967 92.2831 4.02088 82.5235 11.2064 75.3235L75.0518 11.3497C82.2374 4.14971 91.9889 0.099054 102.161 0.088838L192.543 -0.00193375Z" fill="#E5E9F9"/>
</svg>
