<svg width="23" height="14" viewBox="0 0 23 14" fill="none" xmlns="http://www.w3.org/2000/svg">
<path d="M0.821421 6.22233H20.1955L15.0263 1.32784C14.7051 1.02374 14.7051 0.532187 15.0263 0.22808C15.3474 -0.0760267 15.8666 -0.0760267 16.1877 0.22808L22.7591 6.45022C23.0803 6.75432 23.0803 7.24587 22.7591 7.54998L16.1877 13.7721C16.0276 13.9238 15.8173 14 15.607 14C15.3967 14 15.1864 13.9238 15.0263 13.7721C14.7051 13.468 14.7051 12.9765 15.0263 12.6724L20.1955 7.77786H0.821421C0.367174 7.77786 0 7.4302 0 7.0001C0 6.56999 0.367174 6.22233 0.821421 6.22233Z" fill="white"/>
</svg>
