<svg width="205" height="22" viewBox="0 0 205 22" fill="none" xmlns="http://www.w3.org/2000/svg">
<path d="M130.781 0.365234V21.974H125.074V12.9725C125.074 12.9111 125.032 12.8667 124.948 12.8498C124.913 12.8383 124.874 12.838 124.839 12.8492C124.803 12.8603 124.773 12.8821 124.752 12.9111L121.577 18.6443H117.118L113.904 12.9418C113.856 12.8593 113.796 12.8297 113.725 12.8498C113.69 12.8597 113.661 12.8805 113.641 12.9086C113.621 12.9366 113.613 12.9701 113.618 13.0031V21.974H107.91V0.365234H113.226L119.184 11.0311C119.227 11.0702 119.285 11.0922 119.345 11.0924C119.37 11.0944 119.395 11.0896 119.418 11.0787C119.44 11.0678 119.458 11.0513 119.47 11.0311L125.429 0.365234H130.781Z" fill="black"/>
<path d="M179.353 0.365234V21.974H174.286L165.331 10.0139C165.307 9.97266 165.283 9.95679 165.26 9.96737C165.237 9.97794 165.223 10.0033 165.223 10.0446V21.974H159.516V0.365234H164.688L173.537 11.6793C173.56 11.7205 173.583 11.7364 173.608 11.7247C173.633 11.7131 173.644 11.6899 173.644 11.6486V0.365234H179.353Z" fill="black"/>
<path d="M204.998 0.365234V11.1506C204.998 12.4462 204.939 13.6999 204.82 14.9117C204.706 16.1129 204.29 17.2733 203.607 18.3017C202.775 19.5769 201.538 20.5226 199.896 21.1387C199.076 21.442 198.22 21.6594 197.347 21.7868C196.291 21.9373 195.223 22.008 194.154 21.9983C193.091 22.0069 192.029 21.9362 190.978 21.7868C190.098 21.6613 189.236 21.4443 188.41 21.1397C186.873 20.5877 185.571 19.5924 184.7 18.3028C184.366 17.7899 184.102 17.2412 183.914 16.6691C183.724 16.0954 183.587 15.5078 183.504 14.9128C183.42 14.3042 183.372 13.6917 183.361 13.0782C183.349 12.4522 183.344 11.81 183.344 11.1516V0.365234H189.051V11.1506C189.051 12.1375 189.075 13.0521 189.123 13.8945C189.17 14.7369 189.349 15.3946 189.659 15.8676C189.742 15.9695 189.831 16.067 189.926 16.1594C190.121 16.3332 190.351 16.4697 190.604 16.5612C191.028 16.723 191.47 16.8418 191.923 16.9155C192.66 17.031 193.407 17.0824 194.154 17.0688C194.907 17.0817 195.659 17.0304 196.401 16.9155C196.859 16.8432 197.308 16.7244 197.738 16.5612C197.988 16.473 198.213 16.3359 198.399 16.1594C198.514 16.0273 198.6 15.9289 198.649 15.8676C198.955 15.3953 199.139 14.7323 199.201 13.8786C199.263 13.025 199.293 12.1156 199.29 11.1506V0.365234H204.998Z" fill="black"/>
<path d="M156.754 10.8816C156.797 3.45554 151.932 0 145.6 0C138.493 0 133.891 3.77487 133.891 10.4428C133.891 10.9595 133.921 11.4759 133.98 11.9897H156.758L156.754 10.8816ZM139.263 8.29732C139.712 5.28376 142.964 4.04239 145.462 4.04239C147.849 4.04239 151.216 4.90099 151.661 8.29732H139.263Z" fill="black"/>
<path d="M26.8741 0.09375L16.1383 14.8327V21.9679H10.7359V14.8327L0 0.09375H6.55724L13.4199 10.1389L20.2836 0.09375H26.8741Z" fill="black"/>
<path d="M48.3117 10.8953C48.8936 11.49 49.3488 12.1801 49.6537 12.9297C49.9594 13.6803 50.1149 14.4756 50.1129 15.2771C50.1201 16.1638 49.9294 17.0423 49.5527 17.8582C48.8204 19.4517 47.4436 20.7202 45.7139 21.3952C44.8275 21.7416 43.8734 21.9172 42.9105 21.9112H30.168V0.0666325H42.9105C43.89 0.0591975 44.8609 0.235108 45.7644 0.583695C46.6401 0.922763 47.4277 1.42912 48.0753 2.06932C48.6703 2.68442 49.1373 3.39521 49.4528 4.16612C49.7841 4.97717 49.951 5.83732 49.9453 6.70385C49.9438 8.30897 49.3993 9.70613 48.3117 10.8953ZM35.5692 8.20428C35.5692 8.3925 35.684 8.48555 35.9136 8.48555H42.7039C42.9418 8.48573 43.1772 8.4399 43.3947 8.35101C43.6123 8.26212 43.8071 8.13216 43.9667 7.96954C44.1422 7.80737 44.2807 7.61444 44.374 7.40213C44.4673 7.18983 44.5134 6.96246 44.5096 6.73346C44.5265 6.5105 44.4896 6.28686 44.4014 6.07862C44.3133 5.87038 44.1762 5.68271 43.9999 5.52909C43.8303 5.37213 43.6282 5.24818 43.4056 5.16462C43.1829 5.08106 42.9443 5.0396 42.7039 5.0427H35.9079C35.6783 5.0427 35.5635 5.1368 35.5635 5.32396L35.5692 8.20428ZM35.5692 16.6539C35.5692 16.8421 35.684 16.9351 35.9136 16.9351H42.8761C43.1154 16.9379 43.3528 16.8964 43.5744 16.8132C43.796 16.7301 43.9973 16.6068 44.1664 16.4508C44.3433 16.2959 44.483 16.1087 44.5767 15.9011C44.6704 15.6935 44.716 15.4702 44.7105 15.2454C44.6954 14.7839 44.496 14.3438 44.1503 14.0093C43.9951 13.8471 43.8041 13.7173 43.5902 13.6283C43.3762 13.5393 43.1441 13.4933 42.9094 13.4933H35.9067C35.6771 13.4933 35.5623 13.5874 35.5623 13.7746L35.5692 16.6539Z" fill="black"/>
<path d="M53.8477 9.79688V21.9706H59.2833V19.4043C59.2833 19.2171 59.374 19.123 59.5554 19.123H64.2093C64.3459 19.123 64.5686 19.123 64.5686 19.123C63.9533 14 59.4406 10.259 53.8477 9.79688Z" fill="#FF6319"/>
<path d="M76.6862 8.98797C76.6219 7.90813 76.3526 6.84703 75.8906 5.85282C75.3668 4.7105 74.6051 3.67377 73.6486 2.8012C72.6933 1.93278 71.5695 1.2373 70.3355 0.750922C69.064 0.247881 67.6934 -0.00771181 66.3096 0.00017721H65.25C65.7272 2.48813 67.1293 4.74563 69.216 6.38552C71.3026 8.02541 73.9436 8.94549 76.6862 8.98797Z" fill="#FF6319"/>
<path d="M64.4194 0H53.8477V8.94021C56.4308 8.72528 58.8654 7.73348 60.7759 6.11779C62.6864 4.50211 63.9668 2.35231 64.4194 0Z" fill="black"/>
<path d="M65.5757 21.9694H71.42L69.9931 18.4959C71.6987 17.9163 73.2017 16.9211 74.3416 15.6166C75.1043 14.7742 75.7022 13.8161 76.1083 12.785C76.4903 11.8144 76.694 10.792 76.711 9.75977C73.6114 9.80416 70.655 10.9691 68.4795 13.0032C66.304 15.0373 65.0838 17.7775 65.082 20.6329" fill="black"/>
<path d="M100.776 0.0273438V10.9798C100.776 12.2944 100.719 13.5672 100.606 14.798C100.499 16.0096 100.105 17.1848 99.451 18.2408C98.6573 19.5337 97.4795 20.4931 95.9175 21.119C95.139 21.4266 94.3236 21.6478 93.4884 21.7778C91.4792 22.0696 89.4328 22.0696 87.4236 21.7778C86.5825 21.6497 85.7612 21.4289 84.9773 21.1201C83.4906 20.5407 82.25 19.5301 81.4438 18.2419C81.1256 17.7175 80.8748 17.1607 80.6965 16.5829C80.5147 15.9988 80.3842 15.4023 80.3062 14.799C80.2252 14.181 80.1796 13.5594 80.1696 12.937C80.1581 12.3026 80.1523 11.6505 80.1523 10.9808V0.0273438H85.5892V10.9798C85.5892 11.9808 85.6117 12.9091 85.6569 13.7649C85.702 14.6207 85.8719 15.2883 86.1666 15.7676C86.246 15.8709 86.331 15.9705 86.4214 16.0658C86.6049 16.2395 86.8242 16.3776 87.0666 16.4718C87.471 16.6365 87.8948 16.7575 88.3294 16.8324C89.0299 16.9498 89.7413 17.0022 90.4531 16.9889C91.1706 17.0015 91.8878 16.9491 92.5941 16.8324C93.0327 16.7584 93.4603 16.6374 93.8684 16.4718C94.1075 16.3806 94.3219 16.242 94.4963 16.0658C94.6088 15.9297 94.688 15.8303 94.7339 15.7676C95.0294 15.289 95.205 14.6161 95.2609 13.7491C95.3167 12.882 95.3451 11.9589 95.3458 10.9798V0.0273438H100.776Z" fill="black"/>
<path fill-rule="evenodd" clip-rule="evenodd" d="M145.312 21.6063C140.099 21.6063 135.706 18.5167 134.328 14.2871H156.296C154.921 18.5135 150.525 21.6063 145.312 21.6063ZM136.672 15.3926L142.329 15.4803C142.52 17.6966 142.949 18.7339 144.692 20.5061C141.264 20.2915 137.768 18.036 136.672 15.3926Z" fill="#FF6319"/>
</svg>
