<svg width="20" height="20" viewBox="0 0 20 20" fill="none" xmlns="http://www.w3.org/2000/svg">
<path d="M10 0C4.48561 0 0 4.48561 0 10C0 15.5144 4.48561 20 10 20C15.5144 20 20 15.5144 20 10C20 4.48561 15.5144 0 10 0ZM6.93359 5.92355L10 8.98996L13.0664 5.92355C13.3453 5.64468 13.7975 5.64468 14.0765 5.92355C14.3553 6.20249 14.3553 6.65466 14.0765 6.93359L11.01 10L14.0765 13.0664C14.3553 13.3453 14.3553 13.7975 14.0765 14.0765C13.7975 14.3553 13.3453 14.3553 13.0664 14.0765L10 11.01L6.93359 14.0765C6.65466 14.3553 6.20249 14.3553 5.92355 14.0765C5.64468 13.7975 5.64468 13.3453 5.92355 13.0664L8.98996 10L5.92355 6.93359C5.64468 6.65466 5.64468 6.20249 5.92355 5.92355C6.21108 5.66932 6.6608 5.6526 6.93359 5.92355Z" fill="black" fill-opacity="0.2"/>
</svg>
