<svg width="131" height="22" viewBox="0 0 131 22" fill="none" xmlns="http://www.w3.org/2000/svg">
<path d="M26.8741 0.09375L16.1383 14.8327V21.9679H10.7359V14.8327L0 0.09375H6.55724L13.4199 10.1389L20.2836 0.09375H26.8741Z" fill="black"/>
<path d="M48.3117 10.8953C48.8936 11.49 49.3488 12.1801 49.6537 12.9297C49.9594 13.6803 50.1149 14.4756 50.1129 15.2771C50.1201 16.1638 49.9294 17.0423 49.5527 17.8582C48.8204 19.4517 47.4436 20.7202 45.7139 21.3952C44.8275 21.7416 43.8734 21.9172 42.9105 21.9112H30.168V0.0666325H42.9105C43.89 0.0591975 44.8609 0.235108 45.7644 0.583695C46.6401 0.922763 47.4277 1.42912 48.0753 2.06932C48.6703 2.68442 49.1373 3.39521 49.4528 4.16612C49.7841 4.97717 49.951 5.83732 49.9453 6.70385C49.9438 8.30897 49.3993 9.70613 48.3117 10.8953ZM35.5692 8.20428C35.5692 8.3925 35.684 8.48555 35.9136 8.48555H42.7039C42.9418 8.48573 43.1772 8.4399 43.3947 8.35101C43.6123 8.26212 43.8071 8.13216 43.9667 7.96954C44.1422 7.80737 44.2807 7.61444 44.374 7.40213C44.4673 7.18983 44.5134 6.96246 44.5096 6.73346C44.5265 6.5105 44.4896 6.28686 44.4014 6.07862C44.3133 5.87038 44.1762 5.68271 43.9999 5.52909C43.8303 5.37213 43.6282 5.24818 43.4056 5.16462C43.1829 5.08106 42.9443 5.0396 42.7039 5.0427H35.9079C35.6783 5.0427 35.5635 5.1368 35.5635 5.32396L35.5692 8.20428ZM35.5692 16.6539C35.5692 16.8421 35.684 16.9351 35.9136 16.9351H42.8761C43.1154 16.9379 43.3528 16.8964 43.5744 16.8132C43.796 16.7301 43.9973 16.6068 44.1664 16.4508C44.3433 16.2959 44.483 16.1087 44.5767 15.9011C44.6704 15.6935 44.716 15.4702 44.7105 15.2454C44.6954 14.7839 44.496 14.3438 44.1503 14.0093C43.9951 13.8471 43.8041 13.7173 43.5902 13.6283C43.3762 13.5393 43.1441 13.4933 42.9094 13.4933H35.9067C35.6771 13.4933 35.5623 13.5874 35.5623 13.7746L35.5692 16.6539Z" fill="black"/>
<path d="M53.8457 9.79688V21.9706H59.2814V19.4043C59.2814 19.2171 59.3721 19.123 59.5534 19.123H64.2073C64.344 19.123 64.5667 19.123 64.5667 19.123C63.9513 14 59.4386 10.259 53.8457 9.79688Z" fill="#3980FF"/>
<path d="M76.6881 8.98797C76.6238 7.90813 76.3546 6.84703 75.8926 5.85282C75.3688 4.7105 74.6071 3.67377 73.6506 2.8012C72.6953 1.93278 71.5715 1.2373 70.3375 0.750922C69.066 0.247881 67.6953 -0.00771181 66.3115 0.00017721H65.252C65.7292 2.48813 67.1313 4.74563 69.2179 6.38552C71.3045 8.02541 73.9456 8.94549 76.6881 8.98797Z" fill="#3980FF"/>
<path d="M64.4174 0H53.8457V8.94021C56.4288 8.72528 58.8634 7.73348 60.774 6.11779C62.6845 4.50211 63.9648 2.35231 64.4174 0Z" fill="black"/>
<path d="M65.5757 21.9694H71.42L69.9931 18.4959C71.6987 17.9163 73.2017 16.9211 74.3416 15.6166C75.1043 14.7742 75.7022 13.8161 76.1083 12.785C76.4903 11.8144 76.694 10.792 76.711 9.75977C73.6114 9.80416 70.655 10.9691 68.4795 13.0032C66.304 15.0373 65.0838 17.7775 65.082 20.6329" fill="black"/>
<path d="M100.778 0.0273438V10.9798C100.778 12.2944 100.721 13.5672 100.608 14.798C100.501 16.0096 100.107 17.1848 99.4529 18.2408C98.6593 19.5337 97.4815 20.4931 95.9195 21.119C95.141 21.4266 94.3256 21.6478 93.4903 21.7778C91.4812 22.0696 89.4348 22.0696 87.4256 21.7778C86.5845 21.6497 85.7631 21.4289 84.9792 21.1201C83.4926 20.5407 82.2519 19.5301 81.4458 18.2419C81.1275 17.7175 80.8767 17.1607 80.6984 16.5829C80.5167 15.9988 80.3862 15.4023 80.3081 14.799C80.2272 14.181 80.1816 13.5594 80.1715 12.937C80.16 12.3026 80.1543 11.6505 80.1543 10.9808V0.0273438H85.5911V10.9798C85.5911 11.9808 85.6137 12.9091 85.6588 13.7649C85.704 14.6207 85.8739 15.2883 86.1685 15.7676C86.2479 15.8709 86.333 15.9705 86.4234 16.0658C86.6068 16.2395 86.8262 16.3776 87.0686 16.4718C87.473 16.6365 87.8967 16.7575 88.3313 16.8324C89.0318 16.9498 89.7433 17.0022 90.4551 16.9889C91.1726 17.0015 91.8897 16.9491 92.5961 16.8324C93.0346 16.7584 93.4623 16.6374 93.8703 16.4718C94.1095 16.3806 94.3239 16.242 94.4983 16.0658C94.6108 15.9297 94.69 15.8303 94.7359 15.7676C95.0313 15.289 95.207 14.6161 95.2628 13.7491C95.3187 12.882 95.347 11.9589 95.3478 10.9798V0.0273438H100.778Z" fill="black"/>
<path d="M115.643 5.00757L111.959 8.11651V9.77778L115.643 13.4682V5.00757Z" fill="url(#paint0_linear_159_2243)"/>
<path d="M115.644 22L104 11H110.039L115.644 16.6246V22Z" fill="url(#paint1_linear_159_2243)"/>
<path d="M115.644 0L104 11L107.08 13.9665L115.644 5.37539V0Z" fill="#3980FF"/>
<path d="M118.857 16.9923L122.541 13.8834V12.2221L118.857 8.53174V16.9923Z" fill="url(#paint2_linear_159_2243)"/>
<path d="M118.855 0L130.499 11H124.472L118.855 5.37539V0Z" fill="url(#paint3_linear_159_2243)"/>
<path d="M118.855 22L130.499 11L127.431 8.03345L118.855 16.6246V22Z" fill="#3980FF"/>
<defs>
<linearGradient id="paint0_linear_159_2243" x1="115.656" y1="9.25058" x2="113.77" y2="7.56081" gradientUnits="userSpaceOnUse">
<stop stop-color="#3980FF"/>
<stop offset="1" stop-color="#0029BC"/>
</linearGradient>
<linearGradient id="paint1_linear_159_2243" x1="108.087" y1="12.7286" x2="112.24" y2="16.1426" gradientUnits="userSpaceOnUse">
<stop stop-color="#0029BC"/>
<stop offset="1" stop-color="#3980FF"/>
</linearGradient>
<linearGradient id="paint2_linear_159_2243" x1="118.85" y1="12.7507" x2="120.737" y2="14.4404" gradientUnits="userSpaceOnUse">
<stop stop-color="#3980FF"/>
<stop offset="1" stop-color="#0029BC"/>
</linearGradient>
<linearGradient id="paint3_linear_159_2243" x1="126.418" y1="9.27268" x2="122.265" y2="5.85869" gradientUnits="userSpaceOnUse">
<stop stop-color="#0029BC"/>
<stop offset="1" stop-color="#3980FF"/>
</linearGradient>
</defs>
</svg>
