<svg width="30" height="26" viewBox="0 0 30 26" fill="none" xmlns="http://www.w3.org/2000/svg">
<path d="M13.1815 6.23145L9.01099 9.76434V11.6521L13.1815 15.8458V6.23145Z" fill="url(#paint0_linear_67_1905)"/>
<path d="M13.1814 25.541L0 13.041H6.83683L13.1814 19.4326V25.541Z" fill="url(#paint1_linear_67_1905)"/>
<path d="M13.1814 0.541016L0 13.041L3.48678 16.4121L13.1814 6.64941V0.541016Z" fill="#3980FF"/>
<path d="M16.8186 19.8502L20.9891 16.3173V14.4295L16.8186 10.2358V19.8502Z" fill="url(#paint2_linear_67_1905)"/>
<path d="M16.8186 0.541016L30 13.041H23.1769L16.8186 6.64941V0.541016Z" fill="url(#paint3_linear_67_1905)"/>
<path d="M16.8186 25.541L30 13.041L26.5269 9.66992L16.8186 19.4326V25.541Z" fill="#3980FF"/>
<defs>
<linearGradient id="paint0_linear_67_1905" x1="13.1963" y1="11.053" x2="11.0535" y2="9.1409" gradientUnits="userSpaceOnUse">
<stop stop-color="#3980FF"/>
<stop offset="1" stop-color="#0029BC"/>
</linearGradient>
<linearGradient id="paint1_linear_67_1905" x1="4.62691" y1="15.0054" x2="9.34227" y2="18.8674" gradientUnits="userSpaceOnUse">
<stop stop-color="#0029BC"/>
<stop offset="1" stop-color="#3980FF"/>
</linearGradient>
<linearGradient id="paint2_linear_67_1905" x1="16.8104" y1="15.0301" x2="18.9532" y2="16.9422" gradientUnits="userSpaceOnUse">
<stop stop-color="#3980FF"/>
<stop offset="1" stop-color="#0029BC"/>
</linearGradient>
<linearGradient id="paint3_linear_67_1905" x1="25.3797" y1="11.0782" x2="20.6643" y2="7.21611" gradientUnits="userSpaceOnUse">
<stop stop-color="#0029BC"/>
<stop offset="1" stop-color="#3980FF"/>
</linearGradient>
</defs>
</svg>
